<?xml version="1.0" standalone="no"?>
<!DOCTYPE svg PUBLIC "-//W3C//DTD SVG 20010904//EN"
 "http://www.w3.org/TR/2001/REC-SVG-20010904/DTD/svg10.dtd">
<svg version="1.0" xmlns="http://www.w3.org/2000/svg"
 width="260.000000pt" height="260.000000pt" viewBox="0 0 260.000000 260.000000"
 preserveAspectRatio="xMidYMid meet">
<metadata>
Created by potrace 1.11, written by Peter Selinger 2001-2013
</metadata>
<g transform="translate(0.000000,260.000000) scale(0.100000,-0.100000)"
fill="#000000" stroke="none">
<path d="M985 2176 c-153 -38 -232 -140 -239 -308 -1 -34 1 -83 5 -108 4 -25
10 -70 14 -100 4 -30 9 -66 11 -80 3 -14 6 -117 8 -230 3 -167 0 -225 -15
-311 -40 -234 -124 -391 -264 -496 -69 -51 -175 -91 -258 -97 -26 -1 -49 -5
-52 -8 -10 -10 135 -29 201 -27 240 8 441 165 570 445 54 117 83 241 99 429
25 289 41 376 81 439 116 182 432 165 632 -34 93 -93 140 -204 121 -285 -24
-99 -152 -191 -364 -260 -58 -19 -120 -37 -137 -40 -65 -12 -40 -17 49 -11
142 10 233 22 331 42 261 53 418 128 492 236 78 113 38 233 -133 400 -121 118
-227 185 -432 273 -90 38 -240 91 -288 100 -10 2 -27 7 -37 10 -98 31 -308 42
-395 21z"/>
</g>
</svg>
