<svg xmlns="http://www.w3.org/2000/svg" viewBox="0 0 135.19 112.48"><defs><style>.a{fill:#00849c;}.b{fill:#86c7e5;}</style></defs><title>Pacific Bath</title><path class="a" d="M134.94,46.88c-2.46,10.64-18.48,20.95-62.41,22.94,3.15-.25,36.95-3.24,46-16.22C128.06,40,101.66,22.12,92.64,18.5S59.52,5.24,51.32,25.07s4.1,26.23-9,59.19S0,110.33,0,110.33c1.31,0,50.69,5.63,37.38-81.81C29-26.41,113.62,13.09,120.85,23.27,120.85,23.27,137.41,36.22,134.94,46.88Z"/><path class="b" d="M118.55,53.6c-9.06,13-42.87,16-46,16.22a1,1,0,0,1-.23,0s43.4-7.48,36.9-26.58S82,21.45,82,21.45s-19-3.27-22.62,14.6S58.87,69.34,49,87.87,23,117.38,0,110.33c0,0,29.18,6.89,42.31-26.07s.81-39.34,9-59.19S83.63,14.91,92.64,18.5,128.06,40,118.55,53.6Z"/></svg>